<svg width="19" height="19" viewBox="0 0 19 19" fill="none" xmlns="http://www.w3.org/2000/svg">
<path d="M16.5866 1.46289H2.17872C1.68522 1.46289 1.28516 1.86295 1.28516 2.35646V16.7643C1.28516 17.2578 1.68522 17.6579 2.17872 17.6579H16.5866C17.0801 17.6579 17.4802 17.2578 17.4802 16.7643V2.35646C17.4802 1.86295 17.0801 1.46289 16.5866 1.46289Z" fill="#3D5A98"/>
<path d="M12.4576 17.6548V11.3834H14.5622L14.877 8.93945H12.4576V7.37948C12.4576 6.67201 12.6547 6.18897 13.6687 6.18897H14.9632V3.99953C14.3363 3.93432 13.7064 3.90325 13.0761 3.90648C11.2124 3.90648 9.92882 5.04225 9.92882 7.13727V8.93945H7.82422V11.3834H9.92882V17.6548H12.4576Z" fill="white"/>
</svg>
