<svg width="17" height="19" viewBox="0 0 17 19" fill="none" xmlns="http://www.w3.org/2000/svg">
<g clip-path="url(#clip0_973_2356)">
<path d="M12.1119 7.06697C13.2401 7.87299 14.6221 8.34724 16.1147 8.34724V5.4765C15.8322 5.47661 15.5505 5.44714 15.2741 5.38856V7.64824C13.7816 7.64824 12.3997 7.17406 11.2714 6.3681V12.2265C11.2714 15.1572 8.89435 17.5328 5.96237 17.5328C4.86837 17.5328 3.85151 17.2022 3.00684 16.6353C3.97091 17.6206 5.31538 18.2317 6.80275 18.2317C9.73497 18.2317 12.1121 15.8561 12.1121 12.9253V7.06697H12.1119ZM13.149 4.17075C12.5724 3.54122 12.1938 2.72765 12.1119 1.8282V1.45898H11.3154C11.5159 2.60214 12.1999 3.57879 13.149 4.17075ZM4.86131 14.3864C4.53916 13.9643 4.36504 13.4479 4.36586 12.9169C4.36586 11.5766 5.45309 10.4897 6.79448 10.4897C7.04442 10.4896 7.29289 10.528 7.53116 10.6035V7.66854C7.25272 7.63043 6.97175 7.61418 6.69089 7.62016V9.90455C6.45251 9.82902 6.20391 9.79068 5.95385 9.79088C4.61253 9.79088 3.52536 10.8776 3.52536 12.2181C3.52536 13.166 4.06876 13.9866 4.86131 14.3864Z" fill="#FF004F"/>
<path d="M11.2698 6.36804C12.3983 7.174 13.78 7.64819 15.2726 7.64819V5.3885C14.4394 5.21111 13.7019 4.776 13.1474 4.17075C12.1982 3.57873 11.5143 2.60208 11.3138 1.45898H9.22143V12.9252C9.21665 14.2619 8.1313 15.3443 6.79281 15.3443C6.00413 15.3443 5.30338 14.9685 4.85964 14.3863C4.06721 13.9866 3.52375 13.1659 3.52375 12.2182C3.52375 10.8777 4.61092 9.79094 5.95224 9.79094C6.20924 9.79094 6.45693 9.83092 6.68929 9.90461V7.62022C3.80877 7.67971 1.49219 10.0321 1.49219 12.9253C1.49219 14.3695 2.06905 15.6788 3.00535 16.6354C3.85002 17.2022 4.86683 17.5329 5.96088 17.5329C8.89292 17.5329 11.2699 15.1572 11.2699 12.2265L11.2698 6.36804Z" fill="black"/>
<path d="M15.2733 5.38614V4.77527C14.522 4.77636 13.7855 4.56608 13.1481 4.16845C13.7123 4.78585 14.4553 5.21161 15.2733 5.38626M11.3145 1.45662C11.2954 1.3474 11.2807 1.23744 11.2705 1.12703V0.757812H8.3814V12.2241C8.37681 13.5608 7.29145 14.6431 5.9529 14.6431C5.57344 14.6437 5.19916 14.555 4.8603 14.3842C5.30404 14.9662 6.00479 15.3419 6.79347 15.3419C8.1319 15.3419 9.21737 14.2597 9.22208 12.9229V1.45668L11.3145 1.45662ZM6.69013 7.61786V6.96743C6.4487 6.93447 6.20532 6.91796 5.96166 6.91802C3.02932 6.91802 0.652344 9.29373 0.652344 12.2241C0.652344 14.0614 1.58653 15.6806 3.00613 16.633C2.06983 15.6764 1.49297 14.3671 1.49297 12.9229C1.49297 10.0298 3.80949 7.67735 6.69013 7.61786Z" fill="#00F2EA"/>
</g>
<defs>
<clipPath id="clip0_973_2356">
<rect width="15.4629" height="17.5155" fill="white" transform="translate(0.652344 0.757812)"/>
</clipPath>
</defs>
</svg>
