<svg width="18" height="19" viewBox="0 0 18 19" fill="none" xmlns="http://www.w3.org/2000/svg">
<g clip-path="url(#clip0_973_2331)">
<path d="M13.5148 0.96875H4.20969C1.94245 0.96875 0.104492 2.80671 0.104492 5.07395V14.3791C0.104492 16.6463 1.94245 18.4843 4.20969 18.4843H13.5148C15.7821 18.4843 17.62 16.6463 17.62 14.3791V5.07395C17.62 2.80671 15.7821 0.96875 13.5148 0.96875Z" fill="url(#paint0_radial_973_2331)"/>
<path d="M13.5148 0.96875H4.20969C1.94245 0.96875 0.104492 2.80671 0.104492 5.07395V14.3791C0.104492 16.6463 1.94245 18.4843 4.20969 18.4843H13.5148C15.7821 18.4843 17.62 16.6463 17.62 14.3791V5.07395C17.62 2.80671 15.7821 0.96875 13.5148 0.96875Z" fill="url(#paint1_radial_973_2331)"/>
<path d="M8.86313 2.88477C7.00497 2.88477 6.77173 2.89291 6.04196 2.92609C5.31356 2.95948 4.81635 3.07477 4.38134 3.24397C3.93127 3.41872 3.54956 3.65251 3.16928 4.03292C2.78866 4.41327 2.55487 4.79498 2.37958 5.24485C2.20989 5.68 2.09447 6.17741 2.0617 6.90547C2.02906 7.6353 2.02051 7.86862 2.02051 9.72684C2.02051 11.5851 2.02872 11.8175 2.06183 12.5473C2.09536 13.2757 2.21065 13.7729 2.37971 14.2079C2.55459 14.658 2.78839 15.0397 3.1688 15.42C3.54901 15.8006 3.93073 16.035 4.38045 16.2097C4.81581 16.3789 5.31308 16.4942 6.04135 16.5276C6.77118 16.5608 7.00422 16.5689 8.8623 16.5689C10.7207 16.5689 10.9532 16.5608 11.6829 16.5276C12.4113 16.4942 12.9091 16.3789 13.3444 16.2097C13.7943 16.035 14.1755 15.8006 14.5556 15.42C14.9362 15.0397 15.1699 14.658 15.3453 14.2081C15.5135 13.7729 15.629 13.2756 15.6632 12.5474C15.696 11.8177 15.7045 11.5851 15.7045 9.72684C15.7045 7.86862 15.696 7.63544 15.6632 6.9056C15.629 6.1772 15.5135 5.68007 15.3453 5.24505C15.1699 4.79498 14.9362 4.41327 14.5556 4.03292C14.175 3.65237 13.7944 3.41858 13.344 3.24404C12.9078 3.07477 12.4104 2.95941 11.682 2.92609C10.9521 2.89291 10.7198 2.88477 8.861 2.88477H8.86313ZM8.24933 4.11776C8.43153 4.11749 8.63481 4.11776 8.86313 4.11776C10.69 4.11776 10.9065 4.12433 11.6279 4.1571C12.295 4.18762 12.6571 4.29908 12.8983 4.39274C13.2176 4.51672 13.4452 4.66499 13.6845 4.90452C13.924 5.14399 14.0722 5.37204 14.1965 5.69135C14.2902 5.93219 14.4018 6.29427 14.4322 6.96137C14.4649 7.68265 14.4721 7.89927 14.4721 9.72526C14.4721 11.5513 14.4649 11.7679 14.4322 12.4892C14.4017 13.1562 14.2902 13.5183 14.1965 13.7592C14.0726 14.0786 13.924 14.3059 13.6845 14.5452C13.4451 14.7847 13.2177 14.9329 12.8983 15.057C12.6574 15.151 12.295 15.2622 11.6279 15.2927C10.9066 15.3255 10.69 15.3326 8.86313 15.3326C7.03617 15.3326 6.81962 15.3255 6.09841 15.2927C5.43131 15.2619 5.06924 15.1505 4.82785 15.0568C4.5086 14.9328 4.28049 14.7846 4.04102 14.5451C3.80155 14.3056 3.65335 14.0781 3.52903 13.7587C3.43537 13.5178 3.32377 13.1557 3.29339 12.4886C3.26062 11.7673 3.25405 11.5507 3.25405 9.72355C3.25405 7.89639 3.26062 7.68094 3.29339 6.95966C3.32391 6.29256 3.43537 5.93048 3.52903 5.6893C3.65308 5.36999 3.80155 5.14194 4.04109 4.90247C4.28063 4.663 4.5086 4.51474 4.82792 4.39048C5.0691 4.29641 5.43131 4.18522 6.09841 4.15457C6.72958 4.12604 6.97419 4.11749 8.24933 4.11605V4.11776ZM12.5154 5.25381C12.0621 5.25381 11.6943 5.62122 11.6943 6.07457C11.6943 6.52786 12.0621 6.89562 12.5154 6.89562C12.9687 6.89562 13.3364 6.52786 13.3364 6.07457C13.3364 5.62129 12.9687 5.25353 12.5154 5.25353V5.25381ZM8.86313 6.21313C6.92273 6.21313 5.34948 7.78638 5.34948 9.72684C5.34948 11.6673 6.92273 13.2398 8.86313 13.2398C10.8036 13.2398 12.3763 11.6673 12.3763 9.72684C12.3763 7.78644 10.8034 6.21313 8.86299 6.21313H8.86313ZM8.86313 7.44612C10.1227 7.44612 11.1438 8.46715 11.1438 9.72684C11.1438 10.9864 10.1227 12.0075 8.86313 12.0075C7.60358 12.0075 6.58248 10.9864 6.58248 9.72684C6.58248 8.46715 7.60351 7.44612 8.86313 7.44612Z" fill="white"/>
</g>
<defs>
<radialGradient id="paint0_radial_973_2331" cx="0" cy="0" r="1" gradientUnits="userSpaceOnUse" gradientTransform="translate(4.75705 19.8333) rotate(-90) scale(17.3592 16.1454)">
<stop stop-color="#FFDD55"/>
<stop offset="0.1" stop-color="#FFDD55"/>
<stop offset="0.5" stop-color="#FF543E"/>
<stop offset="1" stop-color="#C837AB"/>
</radialGradient>
<radialGradient id="paint1_radial_973_2331" cx="0" cy="0" r="1" gradientUnits="userSpaceOnUse" gradientTransform="translate(-2.82943 2.23048) rotate(78.681) scale(7.75965 31.9855)">
<stop stop-color="#3771C8"/>
<stop offset="0.128" stop-color="#3771C8"/>
<stop offset="1" stop-color="#6600FF" stop-opacity="0"/>
</radialGradient>
<clipPath id="clip0_973_2331">
<rect width="17.5155" height="17.5155" fill="white" transform="translate(0.104492 0.96875)"/>
</clipPath>
</defs>
</svg>
